<svg width="622" height="255" viewBox="0 0 622 255" fill="none" xmlns="http://www.w3.org/2000/svg">
<path d="M533.631 254.942C499.501 254.942 465.37 254.971 431.239 255L403.106 225.912L454.65 172.648C480.958 200.089 507.295 227.501 533.602 254.942H533.631Z" fill="white"/>
<path d="M300.396 203.642L246.998 255L218.053 225.075L269.597 171.81L300.396 203.642Z" fill="white"/>
<path d="M209.333 234.087L189.08 255C168.19 255 147.301 255 126.411 254.971C113.141 254.971 99.8712 254.971 86.6303 254.971C93.2363 248.096 99.8422 241.222 106.448 234.347C123.571 216.525 140.666 198.702 157.818 180.88L209.333 234.116V234.087Z" fill="white"/>
<path d="M351.563 172.648L403.106 225.912L374.973 255C340.756 255 306.538 255 272.292 255C298.715 227.559 325.11 200.118 351.534 172.677L351.563 172.648Z" fill="white"/>
<path d="M218.053 118.546L166.51 171.81C110.997 114.53 55.513 57.2797 0 0C34.4493 0 68.8986 0 103.348 0L218.053 118.517V118.546Z" fill="white"/>
<path d="M269.597 171.81L218.053 225.075L166.51 171.81L218.053 118.546L269.597 171.81Z" fill="white"/>
<path d="M393.168 109.129L341.625 162.394L310.16 129.869L269.597 171.81L218.053 118.546L285.677 48.7007H334.816L361.761 76.5462L361.732 76.604L393.168 109.129Z" fill="white"/>
<path d="M454.679 172.648L403.106 225.912L351.563 172.648L403.106 119.383L454.679 172.648Z" fill="white"/>
<path d="M622 0C566.226 57.5396 510.453 115.108 454.679 172.648L403.135 119.383L518.623 0C553.072 0 587.522 0 622 0Z" fill="white"/>
</svg>
