<svg width="474" height="144" viewBox="0 0 474 144" fill="none" xmlns="http://www.w3.org/2000/svg">
<g clip-path="url(#clip0_938_175)">
<path d="M33.9402 11.8598L28.4102 9.0598L28.8302 8.6198C29.3202 8.1098 29.8502 7.6398 30.4202 7.2398C31.0502 6.7898 31.8102 6.3498 32.6202 5.9898L32.2502 0.859805L33.1502 0.799805L33.5002 5.6298C35.6902 4.7998 38.0102 4.5398 38.9502 5.7098C39.3602 6.2198 39.8202 7.5298 38.2102 10.5298L37.4102 10.0998C38.9002 7.31981 38.3602 6.4198 38.2402 6.2698C37.6402 5.5298 35.6202 5.7298 33.5602 6.5598L33.9402 11.8598ZM29.9202 8.8098L32.9302 10.3298L32.6902 6.9398C32.0802 7.2398 31.4902 7.5798 30.9502 7.9698C30.5902 8.2298 30.2502 8.5098 29.9202 8.8098Z" fill="white"/>
<path d="M27.7802 5.22959L27.4902 4.37959C28.6502 3.97959 29.8502 3.67959 31.0502 3.47959C32.8802 3.16959 34.7502 3.08959 36.6202 3.22959L36.5502 4.12959C34.7602 3.98959 32.9602 4.06959 31.2002 4.36959C30.0402 4.56959 28.8902 4.85959 27.7802 5.23959V5.22959Z" fill="white"/>
<path d="M41.3208 4.40975C41.2308 4.13975 40.9908 3.62975 40.4508 3.25975C39.8208 2.81975 39.1408 2.81975 38.8808 2.84975L38.8008 1.94975C39.1608 1.91975 40.0908 1.89975 40.9708 2.51975C41.7108 3.03975 42.0408 3.74975 42.1708 4.11975L41.3208 4.40975Z" fill="white"/>
<path d="M180.059 11.8598L174.529 9.0598L174.949 8.6198C175.439 8.1098 175.969 7.6398 176.539 7.2398C177.169 6.7898 177.929 6.3498 178.739 5.9898L178.369 0.859805L179.269 0.799805L179.619 5.6298C181.809 4.7998 184.129 4.5398 185.069 5.7098C185.479 6.2198 185.939 7.5298 184.329 10.5298L183.529 10.0998C185.019 7.31981 184.479 6.4198 184.359 6.2698C183.759 5.5298 181.739 5.7298 179.679 6.5598L180.059 11.8598ZM176.039 8.8098L179.049 10.3298L178.809 6.9398C178.199 7.2398 177.609 7.5798 177.069 7.9698C176.709 8.2298 176.369 8.5098 176.039 8.8098Z" fill="white"/>
<path d="M173.899 5.22959L173.609 4.37959C174.769 3.97959 175.969 3.67959 177.169 3.47959C178.999 3.16959 180.869 3.08959 182.739 3.22959L182.669 4.12959C180.879 3.98959 179.079 4.06959 177.319 4.36959C176.159 4.56959 175.009 4.85959 173.899 5.23959V5.22959Z" fill="white"/>
<path d="M187.43 4.40975C187.34 4.13975 187.1 3.62975 186.56 3.25975C185.93 2.81975 185.25 2.81975 184.99 2.84975L184.91 1.94975C185.27 1.91975 186.2 1.89975 187.08 2.51975C187.82 3.03975 188.15 3.74975 188.28 4.11975L187.43 4.40975Z" fill="white"/>
<path d="M320.36 12.6497V11.1997C320.35 10.8297 320.42 8.90975 321.95 7.75975C322.26 7.51975 322.62 7.32975 323 7.17975L324.57 4.88975L319.94 5.96975L319.74 5.08975L326.62 3.48975L324.3 6.88975C324.58 6.86975 324.86 6.86975 325.12 6.90975C325.84 7.00975 326.42 7.33975 326.81 7.84975C327.46 8.71975 327.47 9.99975 326.9 11.1297L330.77 10.7097L330.87 11.6097L324.93 12.2597L325.65 11.3997C326.46 10.4397 326.64 9.14975 326.08 8.38975C325.84 8.06975 325.47 7.86975 324.99 7.79975C324.55 7.73975 324.05 7.79975 323.58 7.93975L320.37 12.6497H320.36Z" fill="white"/>
<path d="M321.306 0.00414238L321.109 0.882324L325.442 1.85391L325.639 0.975723L321.306 0.00414238Z" fill="white"/>
<path d="M463.061 12.1997L462.291 11.7297C462.941 10.4697 463.541 9.46971 464.101 8.72971C465.361 6.22971 466.191 3.44971 466.561 0.449707L467.461 0.559707C467.171 2.91971 466.601 5.14971 465.771 7.21971C466.061 7.09971 466.341 7.06971 466.611 7.11971C467.361 7.25971 467.721 7.98971 468.071 8.68971C468.421 9.38971 468.771 10.1197 469.501 10.4297C470.351 10.7897 471.521 10.4897 472.971 9.55971L473.461 10.3197C471.741 11.4297 470.291 11.7497 469.151 11.2697C468.111 10.8297 467.641 9.86971 467.261 9.09971C466.991 8.54971 466.761 8.06971 466.441 8.00971C466.271 7.97971 465.781 8.02971 464.871 9.21971C464.531 9.89971 464.151 10.5597 463.741 11.1997C463.521 11.5397 463.291 11.8797 463.061 12.2097V12.1997Z" fill="white"/>
<path d="M67.9492 97.1502L68.1692 96.9302V97.1502H67.9492Z" fill="#E22424"/>
<path d="M276.181 113.98C264.401 113.98 252.621 113.99 240.841 114L231.131 103.93L248.921 85.4902C258.001 94.9902 267.091 104.48 276.171 113.98H276.181Z" fill="#4F46E5"/>
<path d="M195.68 96.2104L177.25 113.99L167.26 103.63L185.05 85.1904L195.68 96.2104Z" fill="#4F46E5"/>
<path d="M164.25 106.76L157.26 114C150.05 114 142.84 114 135.63 113.99C131.05 113.99 126.47 113.99 121.9 113.99C124.18 111.61 126.46 109.23 128.74 106.85C134.65 100.68 140.55 94.5103 146.47 88.3403L164.25 106.77V106.76Z" fill="#4F46E5"/>
<path d="M213.34 85.4902L231.13 103.93L221.42 114C209.61 114 197.8 114 185.98 114C195.1 104.5 204.21 95.0002 213.33 85.5002L213.34 85.4902Z" fill="#4F46E5"/>
<path d="M167.26 66.7602L149.47 85.2002C130.31 65.3702 111.16 45.5502 92 25.7202C103.89 25.7202 115.78 25.7202 127.67 25.7202L167.26 66.7502V66.7602Z" fill="#4F46E5"/>
<path d="M185.051 85.1903L167.261 103.63L149.471 85.1903L167.261 66.7603L185.051 85.1903Z" fill="#4F46E5"/>
<path d="M227.7 63.4903L209.91 81.9303L199.05 70.6803L188.84 81.2603L185.05 85.1903L167.26 66.7603L190.6 42.5703H207.56L209.93 45.0303L216.86 52.2203L216.85 52.2403L227.7 63.4903Z" fill="#4F46E5"/>
<path d="M248.93 85.4903L231.13 103.93L213.34 85.4903L231.13 67.0503L248.93 85.4903Z" fill="#4F46E5"/>
<path d="M306.681 25.7202C287.431 45.6402 268.181 65.5702 248.931 85.4902L231.141 67.0502L271.011 25.7302C282.901 25.7302 294.791 25.7302 306.691 25.7302L306.681 25.7202Z" fill="#4F46E5"/>
<path d="M84.05 112.84H39.43L0 70.6498L39.2 24.5498L84.23 24.9198L126.86 70.1498L84.05 112.83V112.84ZM50.56 87.1998H73.45L91.1 69.5998L73.08 50.4698L50.97 50.2898L34.34 69.8498L50.56 87.1998Z" fill="white"/>
<path d="M368.85 114.27H318.68L268.75 72.1702L317.05 24.2402L372.64 24.5302L372.5 50.1802L327.56 49.9402L306.71 70.6302L328.05 88.6302H368.85V114.27Z" fill="white"/>
<path d="M287.744 62.5283L287.713 80.2783L364.573 80.4125L364.604 62.6625L287.744 62.5283Z" fill="white"/>
<path d="M467.441 23.52V115H430.641V89.38L430.721 89.3L430.641 89.21L412.131 69.57L405.551 69.52V115.01H377.221V23.54H405.551C411.581 30.1 417.601 36.65 423.631 43.21L430.641 50.64V23.52H467.441Z" fill="white"/>
</g>
<defs>
<clipPath id="clip0_938_175">
<rect width="473.46" height="143.55" fill="white"/>
</clipPath>
</defs>
</svg>
