<svg width="22" height="43" viewBox="0 0 22 43" fill="none" xmlns="http://www.w3.org/2000/svg">
<path d="M7.81278 24.0642L7.8097 22.383H6.12857H1.68421V22.3779V22.3655V22.3531V22.3408V22.3284V22.3161V22.3037V22.2913V22.279V22.2666V22.2542V22.2418V22.2295V22.2171V22.2047V22.1923V22.18V22.1676V22.1552V22.1428V22.1304V22.1181V22.1057V22.0933V22.0809V22.0685V22.0561V22.0437V22.0314V22.019V22.0066V21.9942V21.9818V21.9694V21.957V21.9446V21.9322V21.9198V21.9074V21.895V21.8826V21.8702V21.8578V21.8454V21.833V21.8206V21.8082V21.7957V21.7833V21.7709V21.7585V21.7461V21.7337V21.7213V21.7089V21.6964V21.684V21.6716V21.6592V21.6468V21.6343V21.6219V21.6095V21.5971V21.5847V21.5722V21.5598V21.5474V21.535V21.5225V21.5101V21.4977V21.4852V21.4728V21.4604V21.4479V21.4355V21.4231V21.4106V21.3982V21.3858V21.3733V21.3609V21.3484V21.336V21.3236V21.3111V21.2987V21.2862V21.2738V21.2614V21.2489V21.2365V21.224V21.2116V21.1991V21.1867V21.1742V21.1618V21.1493V21.1369V21.1244V21.112V21.0995V21.0871V21.0746V21.0622V21.0497V21.0373V21.0248V21.0123V20.9999V20.9874V20.975V20.9625V20.9501V20.9376V20.9251V20.9127V20.9002V20.8877V20.8753V20.8628V20.8504V20.8379V20.8254V20.813V20.8005V20.788V20.7756V20.7631V20.7506V20.7382V20.7257V20.7132V20.7008V20.6883V20.6758V20.6634V20.6509V20.6384V20.6259V20.6135V20.601V20.5885V20.5761V20.5636V20.5511V20.5386V20.5262V20.5137V20.5012V20.4887V20.4763V20.4638V20.4513V20.4388V20.4264V20.4139V20.4014V20.3889V20.3764V20.364V20.3515V20.339V20.3265V20.314V20.3016V20.2891V20.2766V20.2641V20.2516V20.2392V20.2267V20.2142V20.2017V20.1892V20.1768V20.1643V20.1518V20.1393V20.1268V20.1144V20.1019V20.0894V20.0769V20.0644V20.0519V20.0395V20.027V20.0145V20.002V19.9895V19.977V19.9646V19.9521V19.9396V19.9271V19.9146V19.9021V19.8897V19.8772V19.8647V19.8522V19.8397V19.8272V19.8147V19.8023V19.7898V19.7773V19.7648V19.7523V19.7398V19.7274V19.7149V19.7024V19.6899V19.6774V19.6649V19.6524V19.64V19.6275V19.615V19.6025V19.59V19.5775V19.5651V19.5526V19.5401V19.5276V19.5151V19.5026V19.4902V19.4777V19.4652V19.4527V19.4402V19.4278V19.4153V19.4028V19.3903V19.3778V19.3653V19.3529V19.3404V19.3279V19.3154V19.3029V19.2905V19.278V19.2655V19.253V19.2405V19.2281V19.2156V19.2031V19.1906V19.1782V19.1657V19.1532V19.1407V19.1282V19.1158V19.1033V19.0908V19.0783V19.0659V19.0534V19.0409V19.0284V19.016V19.0035V18.991V18.9786V18.9661V18.9536V18.9411V18.9287V18.9162V18.9037V18.8913V18.8788V18.8663V18.8539V18.8414V18.8289V18.8165V18.804V18.7915V18.7791V18.7666V18.7541V18.7417V18.7292V18.7167V18.7043V18.6918V18.6793V18.6669V18.6544V18.642V18.6295V18.617V18.6046V18.5921V18.5797V18.5672V18.5548V18.5423V18.5298V18.5174V18.5049V18.4925V18.48V18.4676V18.4551V18.4427V18.4302V18.4178V18.4053V18.3929V18.3804V18.368V18.3555V18.3431V18.3306V18.3182V18.3058V18.2933V18.2809V18.2684V18.256V18.2435V18.2311V18.2187V18.2062V18.1938V18.1814V18.1689V18.1565V18.1441V18.1316V18.1192V18.1068V18.0943V18.0819V18.0695V18.057V18.0446V18.0322V18.0197V18.0073V17.9949V17.9825V17.9701V17.9576V17.9452V17.9328V17.9204V17.9079V17.8955V17.8831V17.8707V17.8583V17.8459V17.8335V17.821V17.8086V17.7962V17.7838V17.7714V17.759V17.7466V17.7342V17.7218V17.7094V17.697V17.6846V17.6722V17.6598V17.6474V17.635V17.6226V17.6102V17.5978V17.5854V17.573V17.5606V17.5482V17.5358V17.5234V17.511V17.4986V17.4863V17.4739V17.4615V17.4491V17.4367V17.4243V17.412V17.3996V17.3872V17.3748V17.3625V17.3501V17.3377V17.3253V17.313V17.3006V17.2882V17.2759V17.2635V17.2511V17.2388V17.2264V17.214V17.2017V17.1893V17.177V17.1646V17.1523V17.1399V17.1319H6.12857H7.81278V15.4477V10.8313V10.8053L7.81198 10.7793C7.75835 9.04395 8.15948 7.27507 8.98939 5.69919C9.82859 4.22085 11.1396 3.14101 12.6384 2.60219L12.6497 2.59811L12.661 2.59386C13.735 2.19027 14.7878 2.02357 15.9657 2.02357H20.3158V6.75837C19.1428 6.75968 17.9416 6.76824 16.7357 6.82454C15.847 6.86604 14.8369 7.09423 14.0631 7.85376C13.2781 8.62423 13.0303 9.6485 13.0245 10.6342C12.9825 11.7167 12.9969 12.8079 13.0109 13.8652C13.0177 14.3809 13.0244 14.8885 13.0244 15.3832V17.0674H14.7086H20.0329V22.383H14.7714H13.0872V24.0673V40.6551H7.84314L7.81278 24.0642ZM1.01256 17.1342C1.01245 17.1341 1.01529 17.1337 1.02143 17.1333C1.01574 17.1341 1.01267 17.1343 1.01256 17.1342ZM21.0046 2.02513C21.0046 2.0252 21.0022 2.02504 20.9978 2.02447C21.0025 2.02478 21.0047 2.02507 21.0046 2.02513ZM20.3144 1.35648C20.3132 1.34923 20.3129 1.34529 20.3131 1.34513C20.3132 1.34496 20.3138 1.34859 20.3144 1.35648ZM20.3131 7.43658C20.3129 7.43642 20.3132 7.43248 20.3144 7.42523C20.3138 7.43312 20.3132 7.43675 20.3131 7.43658ZM20.9977 6.75724C21.0022 6.75667 21.0046 6.75651 21.0046 6.75658C21.0047 6.75664 21.0025 6.75693 20.9977 6.75724ZM7.17019 40.6526C7.17033 40.6525 7.17378 40.6528 7.18019 40.6537C7.17325 40.6532 7.17006 40.6527 7.17019 40.6526ZM7.84637 41.3062C7.84791 41.3149 7.84832 41.3197 7.84813 41.3199C7.84795 41.3201 7.84718 41.3158 7.84637 41.3062Z" fill="white" stroke="white" stroke-width="3.36842"/>
</svg>
