<svg width="38" height="40" viewBox="0 0 38 40" fill="none" xmlns="http://www.w3.org/2000/svg">
<mask id="mask0_938_242" style="mask-type:luminance" maskUnits="userSpaceOnUse" x="0" y="0" width="38" height="40">
<path d="M37.2972 39.3234V0.375481H0.0364586V39.3234H37.2972Z" fill="white" stroke="white" stroke-width="0.0729172"/>
</mask>
<g mask="url(#mask0_938_242)">
<path d="M35.8745 19.8498C35.8708 21.4537 35.8535 23.0578 35.8325 24.6617C35.8071 26.5968 35.7785 28.5328 35.3142 30.4347C34.8273 32.4292 33.867 34.1493 32.3729 35.4228C30.7985 36.7647 28.8955 37.4701 26.8415 37.6006C24.1174 37.7738 21.392 37.8422 18.6667 37.8355C15.9414 37.8422 13.216 37.7738 10.4919 37.6006C8.43796 37.4701 6.53497 36.7647 4.96054 35.4228C3.46647 34.1493 2.50615 32.4292 2.01921 30.4347C1.55487 28.5328 1.52629 26.5968 1.50099 24.6617C1.47999 23.0578 1.46256 21.4537 1.45898 19.8498C1.46256 18.2458 1.47999 16.6418 1.50099 15.0379C1.52629 13.1028 1.55487 11.1668 2.01921 9.26485C2.50615 7.27036 3.46647 5.55024 4.96054 4.27681C6.53497 2.93486 8.43796 2.22951 10.4919 2.09896C13.216 1.9258 15.9414 1.85736 18.6667 1.86407C21.392 1.85736 24.1174 1.9258 26.8415 2.09896C28.8955 2.22951 30.7985 2.93486 32.3729 4.27681C33.867 5.55024 34.8273 7.27036 35.3142 9.26485C35.7785 11.1668 35.8071 13.1028 35.8325 15.0379C35.8535 16.6418 35.8708 18.2458 35.8745 19.8498Z" stroke="white" stroke-width="2.91669" stroke-miterlimit="10"/>
<path d="M26.2501 19.8497C26.2501 24.2693 22.8223 27.8521 18.5938 27.8521C14.3653 27.8521 10.9375 24.2693 10.9375 19.8497C10.9375 15.4302 14.3653 11.8474 18.5938 11.8474C22.8223 11.8474 26.2501 15.4302 26.2501 19.8497Z" stroke="white" stroke-width="2.91669" stroke-miterlimit="10"/>
<path d="M28.7285 11.8112C29.915 11.8112 30.8796 10.8054 30.8796 9.56128C30.8796 8.31719 29.915 7.31136 28.7285 7.31136C27.5421 7.31136 26.5775 8.31719 26.5775 9.56128C26.5775 10.8054 27.5421 11.8112 28.7285 11.8112Z" fill="white" stroke="white" stroke-width="0.0729172"/>
</g>
</svg>
