<svg width="252" height="62" viewBox="0 0 252 62" fill="none" xmlns="http://www.w3.org/2000/svg">
<g clip-path="url(#clip0_938_67)">
<path d="M18.3057 6.44882L15.3691 4.96282L15.5922 4.7293C15.8524 4.45864 16.1338 4.2092 16.4365 3.99692C16.771 3.75809 17.1746 3.52458 17.6047 3.33352L17.4083 0.610945L17.8862 0.579102L18.072 3.14246C19.235 2.70197 20.4669 2.56398 20.9661 3.18492C21.1838 3.45558 21.4281 4.15082 20.5731 5.74297L20.1483 5.51476C20.9395 4.03937 20.6528 3.56173 20.5891 3.48212C20.2705 3.08939 19.1978 3.19553 18.1039 3.63603L18.3057 6.44882ZM16.171 4.83014L17.7694 5.63683L17.6419 3.8377C17.318 3.99692 17.0047 4.17736 16.7179 4.38434C16.5268 4.52232 16.3462 4.67093 16.171 4.83014Z" fill="white"/>
<path d="M15.0329 2.93022L14.8789 2.47911C15.4949 2.26683 16.1321 2.10761 16.7693 2.00147C17.7411 1.83695 18.7341 1.79449 19.7271 1.86879L19.69 2.34643C18.7394 2.27213 17.7836 2.31459 16.849 2.47381C16.233 2.57995 15.6223 2.73386 15.0329 2.93553V2.93022Z" fill="white"/>
<path d="M22.2229 2.49491C22.1751 2.35162 22.0477 2.08095 21.761 1.88459C21.4264 1.65107 21.0653 1.65107 20.9272 1.66699L20.8848 1.18935C21.0759 1.17343 21.5698 1.16281 22.0371 1.49186C22.43 1.76783 22.6053 2.14464 22.6743 2.341L22.2229 2.49491Z" fill="white"/>
<path d="M95.8994 6.44882L92.9629 4.96282L93.1859 4.7293C93.4461 4.45864 93.7276 4.2092 94.0302 3.99692C94.3648 3.75809 94.7684 3.52458 95.1985 3.33352L95.002 0.610945L95.4799 0.579102L95.6658 3.14246C96.8287 2.70197 98.0607 2.56398 98.5599 3.18492C98.7776 3.45558 99.0218 4.15082 98.1669 5.74297L97.7421 5.51476C98.5333 4.03937 98.2465 3.56173 98.1828 3.48212C97.8642 3.08939 96.7915 3.19553 95.6976 3.63603L95.8994 6.44882ZM93.7647 4.83014L95.3631 5.63683L95.2357 3.8377C94.9117 3.99692 94.5984 4.17736 94.3117 4.38434C94.1205 4.52232 93.94 4.67093 93.7647 4.83014Z" fill="white"/>
<path d="M92.6266 2.93022L92.4727 2.47911C93.0886 2.26683 93.7259 2.10761 94.3631 2.00147C95.3349 1.83695 96.3279 1.79449 97.3209 1.86879L97.2837 2.34643C96.3332 2.27213 95.3773 2.31459 94.4427 2.47381C93.8268 2.57995 93.2161 2.73386 92.6266 2.93553V2.93022Z" fill="white"/>
<path d="M99.8128 2.49491C99.765 2.35162 99.6375 2.08095 99.3508 1.88459C99.0162 1.65107 98.6552 1.65107 98.5171 1.66699L98.4746 1.18935C98.6658 1.17343 99.1596 1.16281 99.6269 1.49186C100.02 1.76783 100.195 2.14464 100.264 2.341L99.8128 2.49491Z" fill="white"/>
<path d="M170.4 6.86722V6.09768C170.394 5.90132 170.431 4.88234 171.244 4.27202C171.408 4.14465 171.6 4.04381 171.801 3.9642L172.635 2.74886L170.177 3.32204L170.07 2.85501L173.724 2.00586L172.492 3.8103C172.64 3.79968 172.789 3.79968 172.927 3.82091C173.31 3.87398 173.618 4.04912 173.825 4.31978C174.17 4.78151 174.175 5.46082 173.872 6.06053L175.927 5.83763L175.981 6.31528L172.826 6.66024L173.209 6.20383C173.639 5.69434 173.734 5.00971 173.437 4.60637C173.31 4.43654 173.113 4.3304 172.858 4.29325C172.625 4.2614 172.359 4.29325 172.109 4.36755L170.405 6.86722H170.4Z" fill="white"/>
<path d="M170.903 0.156493L170.799 0.622559L173.099 1.13819L173.204 0.672127L170.903 0.156493Z" fill="white"/>
<path d="M246.176 6.62898L245.768 6.37955C246.113 5.71084 246.431 5.18013 246.729 4.7874C247.398 3.46061 247.839 1.98522 248.035 0.393066L248.513 0.451445C248.359 1.70394 248.056 2.88743 247.616 3.98602C247.77 3.92233 247.918 3.90641 248.062 3.93295C248.46 4.00725 248.651 4.39467 248.837 4.76617C249.023 5.13767 249.209 5.52509 249.596 5.68962C250.048 5.88067 250.669 5.72146 251.439 5.22789L251.699 5.63124C250.786 6.22033 250.016 6.39016 249.41 6.13542C248.858 5.9019 248.609 5.39242 248.407 4.98376C248.263 4.69187 248.141 4.43713 247.971 4.40528C247.881 4.38936 247.621 4.4159 247.138 5.04745C246.957 5.40834 246.755 5.75861 246.538 6.09827C246.421 6.27871 246.299 6.45916 246.176 6.63429V6.62898Z" fill="white"/>
<path d="M36.3652 51.7134L36.4821 51.5967V51.7134H36.3652Z" fill="#E22424"/>
<path d="M146.94 60.6455C140.685 60.6455 134.429 60.6508 128.174 60.6561L123.018 55.3118L132.464 45.5254C137.286 50.5672 142.113 55.6037 146.935 60.6455H146.94Z" fill="#E54B4B"/>
<path d="M104.193 51.2147L94.4065 60.6508L89.1016 55.1526L98.5484 45.3662L104.193 51.2147Z" fill="#E54B4B"/>
<path d="M87.5024 56.8134L83.7906 60.6558C79.9619 60.6558 76.1332 60.6558 72.3046 60.6505C69.8725 60.6505 67.4404 60.6505 65.0137 60.6505C66.2244 59.3874 67.4351 58.1243 68.6459 56.8612C71.7842 53.5866 74.9172 50.3121 78.0608 47.0376L87.5024 56.8187V56.8134Z" fill="#E54B4B"/>
<path d="M113.572 45.5254L123.019 55.3118L117.862 60.6561C111.591 60.6561 105.32 60.6561 99.043 60.6561C103.886 55.6143 108.723 50.5725 113.566 45.5307L113.572 45.5254Z" fill="#E54B4B"/>
<path d="M89.1013 35.5848L79.6545 45.3712C69.4801 34.8471 59.3111 24.3283 49.1367 13.8042C55.4506 13.8042 61.7644 13.8042 68.0782 13.8042L89.1013 35.5795V35.5848Z" fill="#E54B4B"/>
<path d="M98.548 45.3656L89.1011 55.152L79.6543 45.3656L89.1011 35.5845L98.548 45.3656Z" fill="#E54B4B"/>
<path d="M121.196 33.8492L111.75 43.6356L105.983 37.665L100.561 43.28L98.5484 45.3657L89.1016 35.5846L101.496 22.7466H110.502L111.76 24.0521L115.44 27.868L115.435 27.8786L121.196 33.8492Z" fill="#E54B4B"/>
<path d="M132.469 45.5252L123.017 55.3116L113.57 45.5252L123.017 35.7388L132.469 45.5252Z" fill="#E54B4B"/>
<path d="M163.137 13.8042C152.915 24.3761 142.692 34.9532 132.47 45.5251L123.023 35.7387L144.195 13.8095C150.509 13.8095 156.823 13.8095 163.142 13.8095L163.137 13.8042Z" fill="#E54B4B"/>
<path d="M44.9155 60.0405H21.2213L0.283203 37.6496L21.0992 13.1836L45.0111 13.38L67.6485 37.3843L44.9155 60.0352V60.0405ZM27.1316 46.433H39.2867L48.6592 37.0924L39.0902 26.9398L27.3493 26.8442L18.5184 37.225L27.1316 46.433Z" fill="white"/>
<path d="M196.149 60.7994H169.508L142.994 38.4563L168.642 13.019L198.162 13.173L198.088 26.7858L174.223 26.6585L163.152 37.639L174.484 47.1919H196.149V60.7994Z" fill="white"/>
<path d="M153.081 33.3391L153.064 42.7593L193.879 42.8305L193.895 33.4103L153.081 33.3391Z" fill="white"/>
<path d="M248.502 12.6367V61.1867H228.961V47.5897L229.003 47.5472L228.961 47.4995L219.132 37.0762L215.638 37.0497V61.192H200.594V12.6473H215.638C218.84 16.1288 222.036 19.605 225.238 23.0865L228.961 27.0297V12.6367H248.502Z" fill="white"/>
</g>
<defs>
<clipPath id="clip0_938_67">
<rect width="251.417" height="61.0324" fill="white" transform="translate(0.283203 0.154297)"/>
</clipPath>
</defs>
</svg>
