<svg width="32" height="36" viewBox="0 0 32 36" fill="none" xmlns="http://www.w3.org/2000/svg">
<path d="M31.0262 9.22595V14.9023C29.0665 14.8985 27.1624 14.5122 25.366 13.7543C24.2042 13.2637 23.1217 12.6318 22.1317 11.868L22.0758 11.8249L22.076 11.8955L22.1057 24.7971C22.0933 27.6931 20.9476 30.4139 18.8739 32.4636C17.1862 34.132 15.0477 35.1929 12.7299 35.5362C12.1853 35.6169 11.6309 35.6583 11.0704 35.6583C8.58902 35.6583 6.23336 34.8544 4.30654 33.3715C3.9439 33.0923 3.59712 32.7897 3.26687 32.4636C1.01943 30.2423 -0.139332 27.232 0.0557639 24.0649C0.20466 21.6543 1.16975 19.3553 2.77873 17.5533C4.90769 15.1686 7.88585 13.8449 11.0704 13.8449C11.6208 13.8449 12.1652 13.8855 12.7004 13.9633V19.7469C12.1922 19.5843 11.6507 19.495 11.0877 19.495C8.1501 19.495 5.77341 21.8918 5.81726 24.8316C5.84511 26.7128 6.87274 28.3571 8.38804 29.2633C9.10015 29.6893 9.91954 29.9532 10.7939 30.0012C11.4789 30.0388 12.1367 29.9434 12.7458 29.7423C14.8446 29.0489 16.3588 27.0775 16.3588 24.7523L16.3657 0.373934H22.0694C22.0769 0.936028 22.1351 1.48479 22.2412 2.01693C22.6786 4.21429 23.9172 6.12066 25.6409 7.42023C27.1395 8.55058 29.0046 9.22199 31.0262 9.22595Z" fill="white" stroke="white" stroke-width="0.0691565"/>
</svg>
