<svg width="127" height="52" viewBox="0 0 127 52" fill="none" xmlns="http://www.w3.org/2000/svg">
<path d="M108.957 51.9882C101.988 51.9882 95.0193 51.9941 88.0505 52L82.3063 46.0684L92.8304 35.2066C98.202 40.8024 103.579 46.3924 108.951 51.9882H108.957Z" fill="white"/>
<path d="M61.3348 41.527L50.432 52L44.5222 45.8976L55.0464 35.0358L61.3348 41.527Z" fill="white"/>
<path d="M42.7415 47.7354L38.6064 52C34.3411 52 30.0758 52 25.8106 51.9941C23.1011 51.9941 20.3917 51.9941 17.6882 51.9941C19.037 50.5922 20.3858 49.1903 21.7346 47.7884C25.2308 44.1541 28.7211 40.5197 32.2233 36.8854L42.7415 47.7413V47.7354Z" fill="white"/>
<path d="M71.7821 35.2066L82.3063 46.0684L76.562 52C69.5755 52 62.589 52 55.5965 52C60.9917 46.4042 66.381 40.8083 71.7762 35.2125L71.7821 35.2066Z" fill="white"/>
<path d="M44.5222 24.174L33.998 35.0358C22.6634 23.3552 11.3346 11.6806 0 0C7.03386 0 14.0677 0 21.1016 0L44.5222 24.1681V24.174Z" fill="white"/>
<path d="M55.0464 35.0358L44.5222 45.8976L33.998 35.0358L44.5222 24.174L55.0464 35.0358Z" fill="white"/>
<path d="M80.2772 22.2537L69.753 33.1155L63.3284 26.483L55.0464 35.0358L44.5222 24.174L58.3296 9.93113H68.3628L73.8645 15.6094L73.8585 15.6212L80.2772 22.2537Z" fill="white"/>
<path d="M92.8364 35.2066L82.3063 46.0684L71.7821 35.2066L82.3063 24.3448L92.8364 35.2066Z" fill="white"/>
<path d="M127 0C115.612 11.7336 104.224 23.473 92.8364 35.2066L82.3122 24.3448L105.892 0C112.926 0 119.96 0 127 0Z" fill="white"/>
</svg>
